<?xml version="1.0" encoding="iso-8859-1"?>
<!-- Generator: Adobe Illustrator 19.0.0, SVG Export Plug-In . SVG Version: 6.00 Build 0)  -->
<svg version="1.1" id="Capa_1" xmlns="http://www.w3.org/2000/svg" xmlns:xlink="http://www.w3.org/1999/xlink" x="0px" y="0px"
	 viewBox="0 0 360 360" style="enable-background:new 0 0 360 360;" xml:space="preserve">
<g id="XMLID_341_">
	<path id="XMLID_42_" style="fill:#00D7DF;" d="M360,349.375H23.5c-12.979,0-23.5-10.521-23.5-23.5v-53
		c0-12.979,10.521-23.5,23.5-23.5H360V349.375z"/>
	<path id="XMLID_41_" style="fill:#FFDA44;" d="M345,250.625H38.5c-12.979,0-23.5-10.521-23.5-23.5v-73
		c0-12.979,10.521-23.5,23.5-23.5H345V250.625z"/>
	<path id="XMLID_40_" style="fill:#00D7DF;" d="M320,130.625H63.5c-12.979,0-23.5-10.521-23.5-23.5v-73
		c0-12.979,10.521-23.5,23.5-23.5H320V130.625z"/>
	<rect id="XMLID_348_" x="180" y="249.375" style="fill:#00969B;" width="180" height="100"/>
	<rect id="XMLID_350_" x="180" y="130.625" style="fill:#FFCD00;" width="165" height="120"/>
	<rect id="XMLID_351_" x="180" y="10.625" style="fill:#00969B;" width="140" height="120"/>
	<rect id="XMLID_36_" x="45" y="160.625" style="fill:#FFEB99;" width="300" height="60"/>
	<rect id="XMLID_35_" x="30" y="274.375" style="fill:#FFEB99;" width="330" height="50"/>
	<rect id="XMLID_34_" x="70" y="40.625" style="fill:#FFEB99;" width="250" height="60"/>
	<rect id="XMLID_352_" x="180" y="274.375" style="fill:#FFE477;" width="180" height="50"/>
	<rect id="XMLID_439_" x="180" y="160.625" style="fill:#FFE477;" width="165" height="60"/>
	<rect id="XMLID_440_" x="180" y="40.625" style="fill:#FFE477;" width="140" height="60"/>
</g>
<g>
</g>
<g>
</g>
<g>
</g>
<g>
</g>
<g>
</g>
<g>
</g>
<g>
</g>
<g>
</g>
<g>
</g>
<g>
</g>
<g>
</g>
<g>
</g>
<g>
</g>
<g>
</g>
<g>
</g>
</svg>
